<svg xmlns="http://www.w3.org/2000/svg" xmlns:xlink="http://www.w3.org/1999/xlink" version="1.1" x="0px" y="0px" viewBox="0 0 256 256" enable-background="new 0 0 256 256" xml:space="preserve">
	<g>
		<g>
			<g>
				<g>
					<path fill="#000000" d="M204.8,60.4H51.3C28.5,60.4,10,78.9,10,101.7V211c0,22.8,18.5,41.3,41.3,41.3h153.5c22.8,0,41.3-18.5,41.3-41.3V101.7C246,78.9,227.5,60.4,204.8,60.4z M228.8,211c0,13.2-10.8,24-24,24H51.3c-13.2,0-24-10.8-24-24v-52.9c6.8,4.9,15,7.8,24,7.8h153.5c9,0,17.2-2.9,24-7.8V211z M228.8,124.7c0,13.2-10.8,24-24,24H51.3c-13.2,0-24-10.8-24-24v-23c0-13.2,10.8-24,24-24h153.5c13.3,0,24,10.8,24,24V124.7z" />
					<path fill="#000000" d="M90.6,53.6c4.8,0,8.6-3.9,8.6-8.6c0-13.2,10.8-24,24-24h9.6c13.2,0,24,10.8,24,24c0,4.7,3.9,8.6,8.6,8.6c4.8,0,8.6-3.9,8.6-8.6c0-22.8-18.5-41.3-41.3-41.3h-9.6c-22.8,0-41.3,18.5-41.3,41.3C82,49.8,85.8,53.6,90.6,53.6z" />
					<path fill="#000000" d="M64.9,174.6c-3.9,0-7,3.1-7,6.9v7.7c0,3.8,3.1,6.9,7,6.9c3.8,0,6.9-3.1,6.9-6.9v-7.7C71.9,177.7,68.8,174.6,64.9,174.6z" />
					<path fill="#000000" d="M191.1,174.6c-3.9,0-6.9,3.1-6.9,6.9v7.7c0,3.8,3.1,6.9,6.9,6.9c3.8,0,6.9-3.1,6.9-6.9v-7.7C198,177.7,194.9,174.6,191.1,174.6z" />
				</g>
			</g>
			<g />
			<g />
			<g />
			<g />
			<g />
			<g />
			<g />
			<g />
			<g />
			<g />
			<g />
			<g />
			<g />
			<g />
			<g />
		</g>
	</g>
	<deepl-alert xmlns="" />
	<deepl-alert xmlns="" />
	<deepl-alert xmlns="" />
</svg>
